<?xml version="1.0" standalone="no"?><svg xmlns="http://www.w3.org/2000/svg" viewBox="0 0 1440 320"><path fill="#4070f4" fill-opacity="1" d="M0,32L30,69.3C60,107,120,181,180,197.3C240,213,300,171,360,149.3C420,128,480,128,540,149.3C600,171,660,213,720,224C780,235,840,213,900,213.3C960,213,1020,235,1080,240C1140,245,1200,235,1260,192C1320,149,1380,75,1410,37.3L1440,0L1440,0L1410,0C1380,0,1320,0,1260,0C1200,0,1140,0,1080,0C1020,0,960,0,900,0C840,0,780,0,720,0C660,0,600,0,540,0C480,0,420,0,360,0C300,0,240,0,180,0C120,0,60,0,30,0L0,0Z"></path></svg>